# xmcd
#
# Track frame offsets:
#	150
#	25508
#	47710
#	68207
#	94159
#	121699
#	145236
#	165310
#	191416
#	209795
#	234583
#	251235
#	281866
#	299757
#
# Disc length: 4586 seconds
#
# Revision: 1
# Processed by: cddbd v1.5.2PL0 Copyright (c) Steve Scherf et al.
# Submitted via: EasyCDDAExtractor 15.3.0.1
#
DISCID=d611e80e
DTITLE=Emmanuel - Retro - En Vivo
DYEAR=2007
DGENRE=Latin
TTITLE0=La Chica De Humo
TTITLE1=Todo Se Derrumbo
TTITLE2=La Vida Caminaba Sola
TTITLE3=Tengo Mucho Que Aprender De Ti
TTITLE4=Toda La Vida
TTITLE5=Sentirme Vivo
TTITLE6=Pobre Diablo
TTITLE7=La Ultima Luna
TTITLE8=Detenedla Ya
TTITLE9=Corazon De Melao
TTITLE10=Brilla La Mar
TTITLE11=Solo
TTITLE12=Quiero Dormir Cansado
TTITLE13=Megamix
EXTD=YEAR: 2007
EXTT0=
EXTT1=
EXTT2=
EXTT3=
EXTT4=
EXTT5=
EXTT6=
EXTT7=
EXTT8=
EXTT9=
EXTT10=
EXTT11=
EXTT12=
EXTT13=
PLAYORDER=
